<?xml version="1.0" standalone="no"?><!DOCTYPE svg PUBLIC "-//W3C//DTD SVG 20010904//EN" "http://www.w3.org/TR/2001/REC-SVG-20010904/DTD/svg10.dtd"><svg version="1.0" xmlns="http://www.w3.org/2000/svg" width="531.000000" height="334.000000" viewBox="0 0 531.000000 334.000000" preserveAspectRatio="xMidYMid meet"><g transform="translate(0.000000,334.000000) scale(0.100000,-0.100000)" fill="#000000" stroke="none"><path d="M3785 3279 c-157 -21 -349 -88 -498 -173 -266 -152 -519 -411 -752 -769 -27 -42 -52 -77 -55 -77 -3 0 -44 43 -90 96 -267 303 -529 477 -815 541 -91 20 -317 23 -410 4 -137 -27 -297 -96 -411 -177 -34 -23 -99 -83 -146 -133 -128 -136 -210 -299 -254 -501 -23 -106 -26 -351 -5 -455 20 -102 93 -319 136 -405 58 -116 126 -231 140 -236 7 -3 61 24 121 59 196 115 379 228 382 236 1 4 -18 33 -43 65 -136 176 -211 412 -186 584 44 297 308 451 618 359 140 -41 227 -101 403 -277 85 -85 176 -183 202 -216 l47 -62 -75 -108 c-291 -416 -515 -587 -896 -679 -158 -38 -302 -48 -625 -43 -247 4 -293 3 -298 -9 -3 -8 -5 -158 -5 -333 l0 -319 58 -7 c97 -13 627 -9 737 5 687 88 1052 314 1438 889 l76 113 25 -33 c14 -18 67 -89 118 -158 114 -154 292 -339 407 -420 384 -275 885 -325 1289 -130 136 66 235 135 335 235 246 246 382 568 418 985 26 311 -47 663 -191 925 -180 327 -454 537 -793 611 -88 19 -306 26 -402 13z m400 -44 c44 -9 84 -20 89 -25 4 -4 -32 -140 -82 -302 l-90 -293 -33 3 c-113 10 -268 5 -322 -10 -43 -12 -59 -13 -62 -5 -2 7 -42 134 -90 282 -48 149 -88 274 -88 279 -4 18 197 74 323 90 67 8 276 -3 355 -19z m246 -85 c42 -21 105 -57 140 -80 79 -53 250 -224 306 -306 l42 -61 -62 -43 c-34 -23 -147 -101 -250 -172 l-189 -130 -15 23 c-37 55 -142 147 -210 182 l-71 37 28 93 c15 50 51 169 80 262 29 94 57 187 63 208 9 35 12 38 36 32 14 -4 60 -24 102 -45z m-857 -268 c49 -152 91 -282 93 -288 2 -5 -24 -23 -59 -40 -92 -43 -164 -92 -252 -171 l-79 -70 -194 211 c-106 116 -193 215 -193 219 0 25 221 216 337 291 73 47 229 126 247 126 6 0 51 -125 100 -278z m-2048 -9 c8 -3 12 -13 8 -27 -2 -11 -24 -127 -48 -256 l-43 -235 -97 -2 c-68 -1 -118 -8 -163 -23 -36 -12 -66 -20 -68 -18 -1 2 -26 57 -55 123 -29 66 -75 167 -101 224 -27 57 -49 109 -49 116 0 24 225 94 350 109 43 5 246 -3 266 -11z m246 -72 c80 -34 219 -116 289 -172 l40 -31 -25 -32 c-14 -17 -76 -103 -137 -191 -62 -88 -119 -167 -127 -177 -12 -15 -19 -12 -77 28 -70 49 -151 88 -220 105 -34 9 -45 16 -45 31 0 20 60 362 80 456 l11 50 67 -18 c37 -9 102 -32 144 -49z m-778 -270 c58 -129 105 -235 103 -236 -1 0 -26 -19 -55 -40 -47 -35 -132 -142 -132 -166 0 -16 -20 -10 -119 32 -128 55 -345 151 -349 154 -6 5 48 107 95 180 57 89 200 229 283 277 35 21 65 37 66 35 1 -1 49 -107 108 -236z m2075 -25 l190 -209 -22 -27 c-12 -15 -49 -61 -83 -101 -54 -66 -213 -280 -239 -324 -8 -14 -42 15 -214 182 l-203 198 87 130 c129 191 269 369 285 363 5 -2 94 -97 199 -212z m1901 104 c92 -182 164 -446 171 -629 l3 -64 -45 -3 c-24 -1 -158 -5 -296 -9 l-253 -6 0 34 c0 89 -45 259 -94 357 l-25 49 150 103 c82 57 192 133 245 170 53 37 100 65 105 62 5 -3 23 -32 39 -64z m-916 -30 c175 -44 294 -144 375 -313 27 -56 57 -131 66 -167 23 -88 31 -300 15 -396 -51 -322 -242 -553 -510 -620 -104 -26 -272 -16 -379 24 -151 57 -292 161 -439 325 -78 86 -272 331 -272 343 0 9 143 214 219 314 98 128 282 308 381 373 102 66 139 82 250 113 105 29 194 30 294 4z m-1760 -171 c91 -93 166 -174 166 -179 0 -5 -26 -51 -58 -102 -32 -51 -91 -148 -131 -215 -40 -68 -76 -125 -81 -128 -4 -3 -52 47 -105 110 -53 63 -135 151 -182 194 l-85 79 48 69 c61 87 190 268 221 311 13 17 28 32 32 32 5 0 83 -77 175 -171z m-1616 -262 c188 -81 212 -94 207 -112 -18 -68 -26 -179 -16 -241 6 -38 9 -69 8 -69 -1 -1 -110 -31 -242 -67 -160 -43 -242 -61 -246 -54 -12 19 -29 177 -29 260 0 83 21 234 41 296 25 80 32 91 48 85 9 -3 112 -47 229 -98z m2017 -144 l197 -193 -84 -132 c-46 -73 -113 -180 -149 -237 -35 -58 -69 -106 -74 -108 -6 -2 -97 84 -203 190 l-193 193 112 185 c62 101 128 210 147 242 19 32 38 56 42 55 4 -2 96 -90 205 -195z m2450 -220 c-10 -169 -43 -346 -91 -490 -22 -68 -65 -163 -73 -163 -4 0 -97 50 -207 112 -109 61 -224 125 -254 141 -30 17 -56 31 -58 33 -2 1 10 40 27 87 37 105 61 228 61 313 l0 63 118 4 c64 1 200 4 300 5 l184 2 -7 -107z m-2239 -60 c32 -51 228 -287 306 -369 l90 -93 -59 -73 c-33 -40 -108 -137 -168 -216 -60 -78 -113 -141 -119 -139 -20 6 -153 167 -256 309 l-101 139 62 102 c135 221 222 357 228 357 3 0 11 -8 17 -17z m-2007 -73 c17 -68 88 -210 144 -290 25 -35 45 -65 44 -66 -8 -7 -389 -235 -416 -249 -34 -17 -34 -17 -52 6 -69 92 -226 458 -217 506 2 12 62 33 228 79 124 34 232 63 241 63 10 1 19 -15 28 -49z m1481 -155 l194 -194 -106 -158 c-96 -143 -133 -191 -231 -303 l-30 -34 -23 29 c-12 17 -89 118 -171 225 -82 107 -152 200 -156 207 -5 7 20 42 63 90 39 43 112 135 162 206 50 70 93 127 97 127 3 0 94 -88 201 -195z m2186 -163 c66 -37 183 -104 261 -147 79 -44 143 -84 143 -89 1 -35 -163 -257 -257 -348 -92 -90 -281 -215 -297 -197 -2 2 -44 94 -94 204 -50 110 -106 234 -125 276 l-35 77 51 33 c69 44 157 134 198 203 19 31 34 56 35 56 1 0 55 -31 120 -68z m-2551 -312 l177 -235 -44 -39 c-95 -85 -167 -142 -244 -192 -96 -63 -245 -137 -254 -127 -4 5 -49 130 -100 278 -51 149 -95 275 -97 282 -3 7 23 26 59 44 91 46 153 87 242 162 44 36 81 65 82 64 1 -1 82 -108 179 -237z m1367 184 c92 -67 174 -110 260 -135 68 -20 77 -25 73 -43 -5 -22 -69 -386 -87 -496 -6 -36 -14 -68 -17 -72 -11 -12 -211 60 -308 111 -90 48 -199 124 -283 199 l-44 38 149 195 c186 243 189 248 192 248 2 1 31 -19 65 -45z m842 -287 c44 -94 101 -220 127 -279 l48 -107 -82 -32 c-167 -64 -383 -91 -567 -69 -58 6 -107 14 -109 16 -2 2 1 34 7 71 7 38 28 160 47 273 20 113 38 215 40 226 5 21 12 22 137 27 101 3 146 9 188 25 30 11 62 21 70 21 10 1 42 -57 94 -172z m-2760 -29 c20 -57 65 -187 100 -290 l64 -187 -55 -21 c-147 -55 -554 -132 -577 -110 -6 6 -36 457 -36 540 l0 65 125 17 c72 11 168 32 228 52 56 19 105 35 108 35 4 1 23 -45 43 -101z m-536 -13 c9 -8 45 -595 37 -603 -9 -9 -581 -8 -627 2 l-38 7 0 282 c0 155 3 291 6 302 5 20 11 20 312 17 169 -2 308 -5 310 -7z"/></g></svg>