<?xml version="1.0" standalone="no"?><!DOCTYPE svg PUBLIC "-//W3C//DTD SVG 20010904//EN" "http://www.w3.org/TR/2001/REC-SVG-20010904/DTD/svg10.dtd"><svg version="1.0" xmlns="http://www.w3.org/2000/svg" width="500.000000" height="460.000000" viewBox="0 0 500.000000 460.000000" preserveAspectRatio="xMidYMid meet"><g transform="translate(0.000000,460.000000) scale(0.100000,-0.100000)" fill="#000000" stroke="none"><path d="M2000 4289 c-173 -4 -603 -7 -955 -7 l-640 1 -3 -338 -2 -338 562 6 c310 4 770 14 1023 22 253 9 627 17 830 18 403 2 502 -7 661 -59 361 -118 575 -397 640 -836 22 -150 15 -418 -15 -563 -38 -182 -94 -328 -176 -451 -149 -223 -352 -346 -665 -400 -184 -32 -1197 -28 -1460 6 -355 45 -548 203 -621 505 -41 172 -13 398 68 564 53 107 161 216 263 264 91 43 196 73 310 87 236 28 854 40 1035 20 108 -12 185 -47 230 -103 28 -36 30 -45 30 -116 0 -68 -3 -83 -28 -119 -74 -113 -185 -119 -1037 -61 -324 22 -412 22 -435 -2 -37 -36 -63 -420 -41 -592 9 -72 8 -72 209 -92 287 -28 502 -38 842 -39 288 -1 355 2 435 17 283 53 496 221 607 477 158 366 80 789 -191 1036 -81 75 -154 119 -266 161 -172 64 -216 68 -785 68 -513 0 -675 -8 -860 -40 -554 -96 -932 -483 -1041 -1066 -25 -130 -25 -426 -1 -559 21 -112 82 -302 127 -391 125 -248 330 -453 565 -565 302 -143 610 -183 1410 -184 499 0 718 18 950 80 194 51 324 110 488 220 284 190 491 480 601 844 70 229 96 427 97 726 0 399 -56 677 -196 965 -80 166 -164 284 -290 410 -226 226 -494 355 -855 411 -86 14 -197 17 -605 19 -275 1 -642 -2 -815 -6z m408 -315 l2 -292 -92 -6 c-51 -3 -191 -8 -310 -12 l-218 -6 0 296 c0 163 1 297 3 297 3 3 526 16 572 15 l40 -1 3 -291z m639 10 c-3 -157 -7 -287 -9 -289 -1 -1 -139 -6 -305 -10 l-302 -7 -1 296 -1 296 312 0 312 0 -6 -286z m363 260 c107 -15 280 -57 337 -81 l33 -13 -21 -53 c-32 -80 -200 -492 -203 -494 -1 -1 -28 7 -60 18 -83 27 -211 49 -329 57 l-102 7 3 240 c2 132 6 264 9 294 l6 54 111 -7 c61 -4 158 -14 216 -22z m-2513 6 l223 0 0 -305 0 -305 -345 0 -345 0 0 312 0 311 122 -6 c66 -4 222 -7 345 -7z m867 -77 c3 -42 6 -174 6 -293 l0 -218 -97 -6 c-54 -3 -195 -7 -313 -8 l-215 -3 -3 290 c-1 159 0 295 3 302 3 10 73 13 308 13 l304 0 7 -77z m2136 -73 c126 -64 246 -153 363 -271 65 -65 117 -124 115 -129 -2 -6 -104 -92 -228 -190 l-224 -180 -75 73 c-83 80 -137 120 -219 161 -31 16 -52 32 -49 39 22 57 200 497 207 515 12 27 24 25 110 -18z m543 -488 c98 -149 190 -366 230 -545 11 -51 12 -69 4 -73 -41 -14 -543 -112 -548 -106 -3 4 -14 35 -23 69 -25 94 -71 199 -123 282 l-46 74 24 18 c13 9 116 92 229 183 113 91 206 166 207 166 0 0 21 -31 46 -68z m-2220 -334 c4 -66 7 -194 7 -284 l0 -162 -57 -6 c-32 -3 -110 -8 -173 -11 -63 -4 -160 -13 -214 -21 -55 -8 -103 -11 -106 -7 -4 5 -37 126 -74 271 -37 144 -69 268 -72 276 -6 15 8 18 149 37 84 10 313 24 463 27 l71 2 6 -122z m660 112 c3 -3 1 -34 -4 -70 -5 -36 -20 -161 -33 -278 -14 -118 -26 -215 -28 -215 -2 -1 -130 -1 -285 1 l-283 3 0 262 c0 144 -3 272 -7 285 l-6 24 321 -4 c176 -2 322 -5 325 -8z m138 -15 c240 -42 436 -160 543 -327 l17 -27 -118 -77 c-65 -42 -171 -110 -236 -151 l-117 -75 -36 27 c-44 33 -112 60 -177 70 -42 7 -47 10 -47 34 0 31 50 511 56 529 4 15 13 15 115 -3z m-1501 -77 c6 -24 15 -56 20 -73 5 -16 34 -125 64 -241 l54 -211 -67 -21 c-85 -28 -177 -83 -241 -145 -32 -31 -54 -45 -62 -41 -27 16 -438 386 -438 393 0 5 34 41 76 81 77 72 195 156 292 204 59 30 247 96 274 96 12 0 21 -13 28 -42z m2115 -370 c42 -89 71 -198 80 -304 10 -113 -14 -293 -54 -396 l-10 -28 -248 123 c-137 68 -254 126 -260 128 -10 3 -11 16 -1 61 9 45 9 69 0 110 -7 29 -13 58 -15 65 -2 11 446 311 466 313 4 0 23 -33 42 -72z m1074 -45 c20 -143 32 -379 25 -510 -4 -68 -8 -123 -9 -123 -10 0 -516 61 -540 65 l-30 5 3 162 c2 102 -2 203 -11 268 -8 58 -14 106 -13 106 2 4 523 112 542 113 19 1 22 -8 33 -86z m-3781 -31 c48 -43 147 -131 220 -196 l132 -117 -25 -42 c-56 -91 -93 -196 -120 -339 -5 -26 -8 -27 -48 -23 -23 3 -130 14 -237 25 -107 11 -221 23 -252 26 -68 7 -66 2 -42 137 18 107 62 242 115 356 43 93 144 251 161 251 5 0 49 -35 96 -78z m2460 -548 c136 -69 249 -127 250 -129 2 -2 -10 -31 -28 -63 -71 -134 -200 -259 -334 -325 -78 -38 -206 -77 -256 -77 -26 0 -27 3 -39 83 -41 287 -71 509 -71 521 0 8 16 17 37 21 47 9 122 47 147 74 11 12 25 21 33 21 8 0 125 -57 261 -126z m-1254 53 l159 -12 -1 -195 c-1 -107 -5 -252 -9 -322 l-6 -127 -96 5 c-311 17 -552 42 -568 58 -15 15 -23 239 -13 361 13 169 28 243 49 249 21 7 284 -3 485 -17z m747 -36 c3 -3 20 -112 38 -241 17 -129 37 -266 42 -303 6 -38 9 -71 6 -74 -11 -10 -342 -16 -499 -8 l-158 7 0 167 c0 93 3 236 7 319 l6 151 276 -6 c152 -3 279 -8 282 -12z m1577 -62 l262 -32 0 -31 c0 -92 -57 -348 -111 -502 -45 -128 -66 -167 -87 -159 -16 6 -247 139 -429 247 l-83 49 24 47 c13 26 35 83 49 127 21 68 33 116 63 263 3 15 12 22 27 22 12 0 140 -14 285 -31z m-3603 -124 c133 -14 248 -25 258 -25 15 0 17 -11 17 -85 0 -96 22 -218 51 -284 10 -24 19 -47 19 -51 0 -7 -115 -72 -394 -223 -70 -38 -132 -65 -136 -60 -36 36 -111 299 -130 453 -11 94 -14 293 -3 303 3 4 22 5 42 2 20 -3 144 -16 276 -30z m3420 -485 c116 -68 220 -129 232 -136 l22 -14 -33 -57 c-78 -138 -164 -250 -272 -354 -63 -60 -194 -163 -199 -157 -1 2 -71 126 -155 277 l-152 275 28 19 c56 39 172 165 215 235 l44 71 30 -18 c16 -10 125 -74 240 -141z m-3032 -32 c36 -60 110 -134 179 -179 32 -21 64 -39 71 -42 7 -2 -6 -42 -39 -113 -28 -60 -86 -189 -129 -286 l-77 -177 -42 21 c-142 72 -287 192 -385 319 -75 96 -135 193 -129 209 3 9 505 289 520 290 3 0 17 -19 31 -42z m2580 -368 c163 -292 182 -331 165 -342 -49 -33 -146 -82 -219 -111 -161 -65 -416 -127 -424 -103 -5 14 -83 610 -81 613 1 2 56 16 122 32 80 20 150 46 214 79 52 26 98 46 102 43 3 -3 58 -98 121 -211z m-2242 114 c68 -24 171 -41 327 -55 l142 -12 -6 -151 c-3 -83 -9 -225 -13 -316 l-6 -165 -65 3 c-103 4 -246 22 -359 43 -100 20 -308 82 -323 97 -4 4 42 120 103 257 61 138 117 265 124 283 16 37 18 37 76 16z m1663 -86 c6 -33 58 -435 71 -540 l6 -57 -33 -6 c-58 -10 -329 -25 -455 -25 l-123 0 0 310 c0 171 0 313 0 318 0 4 108 10 240 13 132 3 243 9 247 12 18 18 41 5 47 -25z m-568 8 c1 0 4 -144 8 -318 l6 -318 -147 0 c-82 0 -226 3 -322 7 l-174 6 7 171 c3 94 9 237 13 318 l6 147 301 -6 c166 -3 302 -6 302 -7z"/></g></svg>