<?xml version="1.0" standalone="no"?><!DOCTYPE svg PUBLIC "-//W3C//DTD SVG 20010904//EN" "http://www.w3.org/TR/2001/REC-SVG-20010904/DTD/svg10.dtd"><svg version="1.0" xmlns="http://www.w3.org/2000/svg" width="62.000000" height="104.000000" viewBox="0 0 62.000000 104.000000" preserveAspectRatio="xMidYMid meet"><g transform="translate(0.000000,104.000000) scale(0.100000,-0.100000)" fill="#000000" stroke="none"><path d="M125 797 c-3 -6 -4 -161 -3 -342 l3 -330 95 0 c81 0 103 4 152 27 117 54 190 160 196 285 9 172 -96 314 -265 358 -71 19 -172 20 -178 2z m228 -35 c56 -25 131 -92 162 -146 30 -53 49 -145 40 -198 -28 -161 -156 -271 -334 -285 l-81 -6 0 333 0 333 83 -5 c52 -4 101 -13 130 -26z"/></g></svg>