<?xml version="1.0" standalone="no"?><!DOCTYPE svg PUBLIC "-//W3C//DTD SVG 20010904//EN" "http://www.w3.org/TR/2001/REC-SVG-20010904/DTD/svg10.dtd"><svg version="1.0" xmlns="http://www.w3.org/2000/svg" width="98.000000" height="108.000000" viewBox="0 0 98.000000 108.000000" preserveAspectRatio="xMidYMid meet"><g transform="translate(0.000000,108.000000) scale(0.100000,-0.100000)" fill="#000000" stroke="none"><path d="M297 818 c-8 -13 -50 -86 -92 -163 -43 -77 -83 -147 -88 -156 -8 -13 12 -56 90 -195 l100 -179 201 -3 c200 -2 201 -2 215 20 8 13 53 94 101 181 l88 158 -100 177 -100 177 -201 3 c-199 2 -200 2 -214 -20z m501 -168 l93 -170 -94 -168 -94 -167 -193 0 -194 0 -94 169 -95 168 21 37 c12 20 54 96 94 168 l73 133 195 0 195 -1 93 -169z"/></g></svg>